<svg width="400" height="400" viewBox="0 0 400 400" fill="none" xmlns="http://www.w3.org/2000/svg">
  <defs>
    <linearGradient id="logo-gradient" x1="0%" y1="0%" x2="100%" y2="100%">
      <stop offset="0%" stop-color="#ff00ff" />
      <stop offset="100%" stop-color="#3b82f6" />
    </linearGradient>
  </defs>
  
  <!-- Geometric Shield Background -->
  <path d="M200 40L320 80V200C320 280 200 360 200 360C200 360 80 280 80 200V80L200 40Z" fill="#0a1628" stroke="url(#logo-gradient)" stroke-width="8" />
  
  <!-- Geometric Star/Octagon Overlay -->
  <path d="M200 80L230 140L300 150L250 200L270 270L200 240L130 270L150 200L100 150L170 140L200 80Z" fill="url(#logo-gradient)" opacity="0.8" />
  
  <!-- Keyhole Shape -->
  <circle cx="200" cy="180" r="15" fill="#0a1628" />
  <path d="M190 190L210 190L215 220L185 220Z" fill="#0a1628" />
  
  <!-- Text Elements (Optional inside SVG, better as a separate group) -->
  <text x="200" y="320" font-family="'Rajdhani', sans-serif" font-size="34" font-weight="700" fill="url(#logo-gradient)" text-anchor="middle" style="text-transform: uppercase; letter-spacing: 2px;">DEFENCE</text>
  <text x="200" y="350" font-family="'Inter', sans-serif" font-size="18" font-weight="400" fill="#e8edf5" text-anchor="middle" style="text-transform: uppercase; letter-spacing: 4px;">CYBER SECURITY</text>
</svg>
